<?xml version="1.0" standalone="no"?>
<!DOCTYPE svg PUBLIC "-//W3C//DTD SVG 20010904//EN"
 "http://www.w3.org/TR/2001/REC-SVG-20010904/DTD/svg10.dtd">
<svg version="1.0" xmlns="http://www.w3.org/2000/svg"
 width="512.000000pt" height="512.000000pt" viewBox="0 0 512.000000 512.000000"
 preserveAspectRatio="xMidYMid meet">

<g transform="translate(0.000000,512.000000) scale(0.100000,-0.100000)"
fill="#ff0000" stroke="none">
<path d="M243 5106 c-88 -28 -176 -107 -216 -194 -22 -47 -22 -51 -22 -732 l0
-685 29 -58 c36 -70 99 -130 174 -165 l57 -27 860 -5 860 -5 1 -66 c1 -153
127 -279 281 -279 l62 0 52 -160 c29 -87 50 -162 47 -166 -4 -3 -499 -167
-1101 -363 -602 -197 -1114 -369 -1139 -384 -64 -37 -133 -118 -159 -185 -31
-80 -31 -204 0 -284 31 -80 106 -159 189 -200 62 -31 74 -33 167 -33 l100 0
705 232 c1123 369 1481 485 1485 481 1 -2 26 -75 55 -162 48 -150 50 -160 33
-169 -43 -23 -111 -106 -128 -156 -17 -52 -18 -174 -1 -212 6 -14 -3 -17 -56
-21 -35 -3 -81 -15 -103 -26 -75 -38 -101 -78 -189 -283 l-83 -194 -71 -7
c-88 -9 -137 -33 -189 -92 -50 -57 -63 -101 -63 -218 0 -81 4 -101 26 -146 14
-28 43 -65 64 -82 81 -64 -14 -61 1545 -58 l1420 3 40 22 c47 25 95 74 121
123 15 28 19 57 19 150 0 131 -14 171 -81 230 -49 43 -94 61 -173 69 l-65 6
-76 175 c-89 207 -106 238 -153 274 -71 54 -90 56 -601 57 l-471 0 295 98
c162 53 309 105 325 113 46 25 101 87 127 143 32 70 31 171 -2 240 -50 103
-142 164 -260 173 l-66 4 -220 677 -220 676 435 5 436 5 56 26 c79 37 133 90
171 167 l33 67 0 675 0 675 -29 62 c-33 73 -103 143 -173 176 l-48 22 -2035 2
c-1655 1 -2043 -1 -2077 -11z m4084 -171 c50 -21 72 -42 94 -90 17 -37 19 -80
19 -655 0 -416 -4 -628 -11 -655 -14 -50 -64 -100 -114 -114 -26 -7 -162 -11
-373 -11 l-334 0 9 33 c4 17 8 60 8 93 0 60 1 61 23 53 26 -10 60 1 84 28 16
18 18 60 20 504 l3 484 146 5 c155 5 172 11 190 58 13 33 -13 89 -46 102 -16
6 -172 10 -385 10 -358 0 -359 0 -384 -22 -40 -35 -43 -78 -11 -116 l27 -32
144 0 144 0 -1 -457 c0 -424 -1 -456 -16 -435 -44 63 -179 120 -257 108 -22
-4 -69 -16 -104 -27 -35 -12 -65 -19 -68 -17 -2 3 3 34 12 68 27 105 3 206
-71 295 l-34 43 21 18 c61 55 105 179 93 269 -14 116 -92 222 -198 271 -62 29
-63 29 -285 32 l-222 3 -30 -30 -30 -29 0 -540 c0 -525 1 -540 20 -565 13 -16
35 -28 63 -33 41 -7 38 -8 -145 -70 -103 -34 -201 -72 -217 -83 -29 -21 -33
-21 -908 -21 -929 1 -923 1 -975 47 -11 10 -29 36 -39 58 -17 37 -19 80 -19
667 0 419 4 636 11 655 14 37 57 82 94 99 25 11 380 13 2023 14 1771 0 1997
-2 2029 -15z m-1441 -344 c130 -59 132 -239 2 -307 -20 -10 -67 -14 -178 -14
l-150 0 0 170 0 170 143 0 c117 0 149 -4 183 -19z m16 -519 c83 -52 108 -160
56 -239 -43 -65 -80 -77 -250 -81 l-148 -4 0 177 0 177 153 -3 c138 -4 155 -6
189 -27z m484 -431 c44 -20 74 -67 74 -118 0 -33 -31 -87 -57 -101 -51 -28
-1097 -362 -1131 -362 -64 0 -122 61 -122 128 0 30 33 88 60 104 20 13 1101
367 1120 367 8 0 33 -8 56 -18z m143 -1126 c123 -377 222 -687 220 -689 -6 -5
-804 -265 -806 -262 -1 1 -83 251 -183 556 -99 305 -200 614 -224 687 l-44
132 386 126 c213 69 392 128 397 130 6 2 15 4 20 4 6 1 111 -307 234 -684z
m-974 -316 c37 -110 65 -202 64 -203 -2 -2 -490 -163 -1084 -357 -1007 -330
-1085 -354 -1152 -354 -63 0 -76 3 -114 30 -114 80 -123 255 -17 339 32 25 92
46 1048 358 118 38 431 141 695 228 264 87 483 158 487 159 3 1 36 -89 73
-200z m1471 -505 c48 -23 79 -89 65 -141 -6 -22 -22 -50 -35 -62 -17 -16 -187
-76 -573 -203 -612 -200 -602 -198 -660 -134 -28 30 -33 43 -33 86 0 95 -17
87 605 290 303 99 561 179 573 180 13 0 39 -7 58 -16z m439 -775 c12 -12 145
-301 145 -315 0 -2 -312 -4 -694 -4 l-694 0 -31 -26 c-37 -31 -42 -79 -12
-115 l19 -24 852 -5 852 -5 24 -28 c20 -24 24 -39 24 -98 0 -65 -2 -73 -29
-100 l-29 -29 -1387 0 c-1035 0 -1392 3 -1408 12 -38 20 -46 40 -47 115 0 62
3 76 24 100 l24 28 333 3 c298 2 335 5 352 20 29 26 38 57 26 92 -19 53 -48
60 -244 60 -96 0 -175 2 -175 4 0 2 27 68 60 147 37 88 70 153 86 167 l25 22
944 -2 c841 -3 946 -5 960 -19z"/>
<path d="M645 4768 c-45 -26 -44 -16 -45 -589 l0 -546 26 -24 c24 -23 34 -24
160 -27 74 -2 167 1 206 7 195 30 341 175 368 366 13 91 12 360 0 450 -27 185
-158 326 -338 364 -71 15 -351 14 -377 -1z m357 -168 c65 -18 130 -70 160
-129 l28 -53 0 -237 c0 -266 -4 -284 -76 -353 -57 -55 -102 -69 -231 -75
l-113 -6 0 432 0 431 98 0 c53 0 114 -5 134 -10z"/>
<path d="M1585 4768 c-46 -25 -45 -13 -45 -588 l0 -547 26 -24 26 -24 268 -3
c221 -2 275 0 304 12 41 17 60 54 51 98 -12 55 -28 58 -277 58 l-228 0 0 175
0 175 230 0 c216 0 231 1 250 20 27 27 34 64 18 96 -23 50 -44 54 -280 54
l-218 0 0 170 0 170 228 0 c238 1 247 2 270 47 19 35 14 63 -17 94 l-29 29
-279 0 c-182 -1 -285 -4 -298 -12z"/>
<path d="M4567 2379 c-10 -6 -64 -79 -119 -162 -86 -130 -99 -155 -94 -181 12
-61 74 -92 121 -62 38 25 215 295 215 328 0 40 -10 57 -41 73 -33 17 -57 18
-82 4z"/>
<path d="M4545 1758 c-32 -38 -29 -81 11 -115 24 -22 32 -23 215 -23 238 0
259 8 259 95 0 24 -7 39 -26 54 -25 20 -39 21 -229 21 l-203 0 -27 -32z"/>
</g>
</svg>
